<svg xmlns="http://www.w3.org/2000/svg" width="175" height="60"><defs><style>.cls-1{fill:#030504}</style></defs><g id="Group_7180" transform="translate(-310.364 -520.547)"><g id="Group_7180-2" transform="translate(346.83 532.003)"><path id="Path_327" d="M367.79 543.378H356.8V533.8h-4.048v23.042h4.048v-9.71h10.99v9.71h4.049V533.8h-4.049z" class="cls-1" transform="translate(-352.729 -533.681)"/><path id="Path_328" d="M401.63 545.441v-.065a11.906 11.906 0 00-23.809.065v.064a11.906 11.906 0 0023.809-.064zm-4.2.064a7.665 7.665 0 01-7.676 8 7.773 7.773 0 01-7.741-8.067v-.065c0-4.424 3.155-8.034 7.676-8.034a7.8 7.8 0 017.741 8.1z" class="cls-1" transform="translate(-355.643 -533.666)"/><path id="Path_329" d="M419.495 533.666a11.666 11.666 0 00-11.937 11.775v.064a11.905 11.905 0 0023.808-.064v-.065a11.557 11.557 0 00-11.871-11.71zm7.676 11.84a7.665 7.665 0 01-7.676 8 7.773 7.773 0 01-7.741-8.067v-.065c0-4.424 3.154-8.034 7.676-8.034a7.8 7.8 0 017.741 8.1z" class="cls-1" transform="translate(-359.098 -533.666)"/><path id="Path_330" d="M452.545 533.8l-6.913 17.709-6.946-17.709h-4.476l9.578 23.206h3.588l9.546-23.206z" class="cls-1" transform="translate(-362.194 -533.681)"/><path id="Path_331" d="M480.693 553.22h-13.2v-6.188h11.553v-3.621h-11.553v-5.991h13.035v-3.62h-17.084v23.042h17.249z" class="cls-1" transform="translate(-365.59 -533.681)"/><path id="Path_332" d="M491.218 548.809h5.069l5.662 8.032h4.805l-6.221-8.723c3.193-.922 5.465-3.193 5.465-6.978v-.066a6.965 6.965 0 00-1.909-4.971 9.282 9.282 0 00-6.649-2.3h-10.27v23.042h4.049zm0-11.323h5.892c3 0 4.773 1.35 4.773 3.819v.065c0 2.337-1.844 3.851-4.741 3.851h-5.924z" class="cls-1" transform="translate(-368.347 -533.681)"/><path id="Rectangle_2455" d="M0 0h2.334v13.28H0z" class="cls-1" transform="translate(0 28.174)"/><path id="Path_333" d="M369.976 574.726l-7.115-9.182H360.7v13.28h2.3v-9.448l7.323 9.448h1.954v-13.28h-2.3z" class="cls-1" transform="translate(-353.653 -537.37)"/><path id="Path_334" d="M383.8 571.1c-2.561-.607-3.169-1.062-3.169-2.088v-.037c0-.873.8-1.575 2.163-1.575a6.034 6.034 0 013.6 1.365L387.65 567a7.359 7.359 0 00-4.819-1.67c-2.637 0-4.534 1.575-4.534 3.852v.038c0 2.447 1.594 3.282 4.42 3.965 2.467.569 3 1.082 3 2.03v.038c0 .986-.911 1.669-2.353 1.669a6.154 6.154 0 01-4.193-1.726l-1.4 1.669a8.177 8.177 0 005.54 2.126c2.789 0 4.743-1.48 4.743-3.965v-.039c-.006-2.201-1.447-3.207-4.254-3.887z" class="cls-1" transform="translate(-355.636 -537.345)"/><path id="Path_335" d="M393.265 567.706h4.212v11.118h2.353v-11.118h4.212v-2.163h-10.777z" class="cls-1" transform="translate(-357.437 -537.37)"/><path id="Rectangle_2456" d="M0 0h2.333v13.28H0z" class="cls-1" transform="translate(51.222 28.174)"/><path id="Path_336" d="M418.841 567.706h4.212v11.118h2.347v-11.118h4.213v-2.163h-10.772z" class="cls-1" transform="translate(-360.408 -537.37)"/><path id="Path_337" d="M444.647 573.19c0 2.447-1.271 3.68-3.339 3.68-2.087 0-3.359-1.309-3.359-3.776v-7.55h-2.332v7.646c0 3.851 2.2 5.843 5.653 5.843 3.473 0 5.71-1.992 5.71-5.957v-7.532h-2.333z" class="cls-1" transform="translate(-362.357 -537.37)"/><path id="Path_338" d="M452.6 567.706h4.212v11.118h2.353v-11.118h4.212v-2.163H452.6z" class="cls-1" transform="translate(-364.331 -537.37)"/><path id="Rectangle_2457" d="M0 0h2.333v13.28H0z" class="cls-1" transform="translate(103.547 28.174)"/><path id="Path_339" d="M483.568 565.286a6.8 6.8 0 00-6.963 6.868v.038a6.945 6.945 0 0013.888-.038v-.038a6.742 6.742 0 00-6.925-6.83zm4.478 6.906a4.471 4.471 0 01-4.478 4.667 4.534 4.534 0 01-4.515-4.7v-.038a4.487 4.487 0 014.477-4.686 4.551 4.551 0 014.516 4.724z" class="cls-1" transform="translate(-367.12 -537.34)"/><path id="Path_340" d="M505.655 565.544v9.182l-7.115-9.182h-2.163v13.28h2.3v-9.448l7.323 9.448h1.954v-13.28z" class="cls-1" transform="translate(-369.417 -537.37)"/></g><g id="Group_7181" transform="translate(310.364 520.547)"><path id="Path_341" d="M325.21 524.553c-.016.736 0 1.856 0 1.856l.384-.267s-.019-1.417.013-1.648a.387.387 0 01.605-.25.588.588 0 00-.027-.088.552.552 0 00-.975.397z" class="cls-1" transform="translate(-312.088 -520.943)"/><path id="Path_342" d="M319.337 538.56l-.633.184v8.746l.633-.184z" class="cls-1" transform="translate(-311.333 -522.683)"/><path id="Path_343" d="M331.725 533.908s-.238-5.523-4.843-6.678v-.436a1.145 1.145 0 00-.2-.058v-3.772c.025.011.054.021.076.034 0 0-.042-1.681-1.453-1.992v-.458h-.405v.46a2.175 2.175 0 00-1.555 1.93v.017c.028-.012.048-.016.076-.028v3.787l-.223.033v.469c-4.948 1.1-5.172 6.546-5.172 6.546a16.2 16.2 0 017.158-1.385 16.553 16.553 0 016.541 1.531zm-7.866-7.224l.03-3.91a2.7 2.7 0 011.213-.228 2.835 2.835 0 011.146.228v3.876a8.36 8.36 0 00-1.183-.072 11.3 11.3 0 00-1.206.105z" class="cls-1" transform="translate(-311.254 -520.547)"/><path id="Path_344" d="M320.575 551.719v1.432l.553-.162v-1.431z" class="cls-1" transform="translate(-311.55 -524.215)"/><path id="Path_345" d="M321.6 539.857a1.137 1.137 0 00-.849.331 1.589 1.589 0 00-.467 1.152v5.535l.4-.12.323-1.325 1.265-.364v1.234l.389-.548v-4.471c0-.881-.378-1.392-1.061-1.424z" class="cls-1" transform="translate(-311.516 -522.835)"/><path id="Path_346" d="M320.113 535.223a22.717 22.717 0 00-4.347 1.527v2.171l-.714.211v5.368l-1.1-1.172-.91.257-1.845 4.084v2.155l-.527 1.032-.307 27.959 1.236.265v-27.93l.437-.791v-2.589l1.469-3.411.327-.1 1.085 2.626v3.308l.089-.026.812-1.5v-9.005l.712-.208v-2.1c1.3-.586 2.879-1.1 2.879-1.1z" class="cls-1" transform="translate(-310.364 -522.391)"/><path id="Path_347" d="M319.7 551.971l-.551.162v1.434l.551-.158z" class="cls-1" transform="translate(-311.385 -524.264)"/><path id="Path_348" d="M313.9 559.163v20.145c0 .115.171.117.285.117 0 0 .208-1.433.208-1.547l.428-14.915.664-.869v-3.021c0-.348-.059-.637-.328-.684.273-.586.361-.971.954-.971a1.336 1.336 0 01.2.024 1.531 1.531 0 00-.681-.163 1.871 1.871 0 00-1.73 1.884z" class="cls-1" transform="translate(-310.775 -524.954)"/><path id="Path_349" d="M318.578 557.808v20.145c0 .114.171.116.285.116 0 0 .207-1.433.207-1.547l.429-14.916.663-.869v-3.02c0-.348-.059-.638-.327-.685.272-.585.361-.971.953-.971a1.224 1.224 0 01.2.025 1.536 1.536 0 00-.681-.163 1.871 1.871 0 00-1.729 1.885z" class="cls-1" transform="translate(-311.318 -524.796)"/><path id="Path_350" d="M323.253 556.452V576.6c0 .115.171.117.285.117 0 0 .208-1.434.208-1.548l.428-14.915.664-.869v-3.021c0-.348-.059-.637-.328-.684.273-.585.361-.971.954-.971a1.345 1.345 0 01.2.024 1.544 1.544 0 00-.681-.162 1.87 1.87 0 00-1.73 1.881z" class="cls-1" transform="translate(-311.861 -524.639)"/><path id="Path_351" d="M338.82 578.832l-.306-25.567-.247-.169v-3.068l-.317-.213-1.193-2.871-.431-.284-1.671 2.111v-9.755l-.825-.561v-1.408a16.874 16.874 0 00-3.865-1.637l.005.831 1.032.693v11.351l-.527-.345v-3.221l-1.578-2.91-.369-.334v-.951a1.415 1.415 0 00-1-1.507 1.138 1.138 0 00-.178-.027h-.009c-.032 0-.062-.006-.095-.006a1.324 1.324 0 00-.9.382l-.411-2.2-.963-.42v11.02l.849-.235v-3.306l1.459-3.407.294-.08 1.074 2.647v39.028zm-2.626-22.216c.645.3.52 2.324.52 2.7V574.8l-.352-.5-.263-15.942c0-1.4-.6-1.711-.6-1.711.12-.123.695-.031.695-.031zm-2.164-5.282l.439.3v1.36l-.439-.3zm.316 6.307V573.2l-.352-.5-.263-16.021c0-1.4-.6-1.711-.6-1.711.117-.122.692-.03.692-.03.649.296.523 2.324.523 2.703zm-.88-5.316l-.44-.294v-1.356l.44.293zm-.757-11.919c.355.026.73.5.73 1.172v5.6l-.494-.331v-5.521a1.659 1.659 0 00-.53-.922zm-1.249 12.934c.645.3.52 2.324.52 2.7v15.565l-.352-.5-.262-16.025c0-1.4-.6-1.712-.6-1.712.119-.121.694-.029.694-.029z" class="cls-1" transform="translate(-312.061 -522.413)"/><path id="Path_352" d="M314.091 549.1l-.442.133v3.042l.442-.933z" class="cls-1" transform="translate(-310.746 -523.926)"/><path id="Path_353" d="M327.19 548.388l.442-.933v-2.242l-.442.133z" class="cls-1" transform="translate(-312.319 -523.466)"/></g></g></svg>